# xmcd
#
# Track frame offsets: 
#        150
#        28350
#        49590
#        88357
#        111712
#        146552
#        188045
#        219045
#        250070
#        276167
#        304770
#
# Disc length: 4308 seconds
#
# Revision: 0
# Processed by: cddbd v1.5.2PL0 Copyright (c) Steve Scherf et al.
# Submitted via: ExactAudioCopy v0.99pb5
#
DISCID=a310d20b
DTITLE=Eric Clapton  - Superman In Europe - Disc 6 (032901)
DYEAR=1900
DGENRE=
TTITLE0=Superman Inside
TTITLE1=Hoochie Coochie Man
TTITLE2=Stormy Monday
TTITLE3=Cocaine
TTITLE4=Wonderful Tonight
TTITLE5=Layla
TTITLE6=Sunshine Of Your Love
TTITLE7=Somewhere Over The Rainbow
TTITLE8=Doyle Bramhall II Demo.1-Problem Child
TTITLE9=Doyle Bramhall II Demo.2-Send Some Love
TTITLE10=Doyle Bramhall II Demo.3-Green Light Girl
EXTD=
EXTT0=
EXTT1=
EXTT2=
EXTT3=
EXTT4=
EXTT5=
EXTT6=
EXTT7=
EXTT8=
EXTT9=
EXTT10=
PLAYORDER=
